<?xml version="1.0" encoding="utf-8"?>
<!-- Generator: Adobe Illustrator 23.0.1, SVG Export Plug-In . SVG Version: 6.00 Build 0)  -->
<svg version="1.1" xmlns="http://www.w3.org/2000/svg" xmlns:xlink="http://www.w3.org/1999/xlink" x="0px"
	 y="0px" viewBox="0 0 1000 1000" style="enable-background:new 0 0 1000 1000;" xml:space="preserve">
<g>
	<path d="M726.42,148.44H283.23c-62.75,0-113.62,50.54-113.62,112.89v57.9c0,62.34,50.87,112.89,113.62,112.89h331.32l171.93,67.08
		l-66.09-67.08h6.03c62.75,0,113.62-50.54,113.62-112.89v-57.9C840.04,198.98,789.17,148.44,726.42,148.44z"/>
	<path d="M726.42,500.81H283.23c-62.75,0-113.62,50.54-113.62,112.89v57.9c0,62.35,50.87,112.89,113.62,112.89l-69.89,67.08
		l181.83-67.08h331.26c62.75,0,113.62-50.54,113.62-112.89v-57.9C840.04,551.35,789.17,500.81,726.42,500.81z"/>
</g>
</svg>
