<?xml version="1.0" encoding="utf-8"?>
<!-- Generator: Adobe Illustrator 23.0.1, SVG Export Plug-In . SVG Version: 6.00 Build 0)  -->
<svg version="1.1" xmlns="http://www.w3.org/2000/svg" xmlns:xlink="http://www.w3.org/1999/xlink" x="0px"
	 y="0px" viewBox="0 0 1000 1000" style="enable-background:new 0 0 1000 1000;" xml:space="preserve">
<path d="M88.46,125.82v682.97c0,51.89,42.07,93.96,93.96,93.96h635.16c51.89,0,93.96-42.07,93.96-93.96V125.82H88.46z
	 M430.18,793.69H319.35v-46.76h110.82V793.69z M370.47,603.12v-39.53h259.06v39.53H370.47z M543.76,848.35h-87.53V745.71h87.53
	V848.35z M680.65,793.69H569.82v-46.76h110.82V793.69z M863.25,799.4c0,27.04-21.92,48.96-48.96,48.96H697.8V662.41h-47.25V515.88
	H510.08v-49.7l80.33-28.59l-80.33-34.4h-20.15v112.69H349.45v146.53H302.2v185.94H185.7c-27.04,0-48.96-21.92-48.96-48.96V364.73
	h726.51V799.4z M863.25,314.18H136.75V182.31h726.51V314.18z"/>
</svg>
