<?xml version="1.0" encoding="utf-8"?>
<!-- Generator: Adobe Illustrator 23.0.1, SVG Export Plug-In . SVG Version: 6.00 Build 0)  -->
<svg version="1.1" xmlns="http://www.w3.org/2000/svg" xmlns:xlink="http://www.w3.org/1999/xlink" x="0px"
	 y="0px" viewBox="0 0 1000 1000" style="enable-background:new 0 0 1000 1000;" xml:space="preserve">
<style type="text/css">
	.st0{stroke:#000000;stroke-miterlimit:10;}
</style>
<path class="st0" d="M880.22,177.47H119.78c-57.05,0-103.3,46.25-103.3,103.3v438.46c0,57.05,46.25,103.3,103.3,103.3h760.44
	c57.05,0,103.3-46.25,103.3-103.3V280.77C983.52,223.72,937.27,177.47,880.22,177.47z M374.73,301.54c0-38.24,31-69.23,69.23-69.23
	h110.99c38.24,0,69.23,31,69.23,69.23v40.66c0,38.24-31,69.23-69.23,69.23H443.96c-38.24,0-69.23-31-69.23-69.23V301.54z
	 M64.35,302.09c0-38.24,31-69.23,69.23-69.23h110.99c38.24,0,69.23,31,69.23,69.23v40.66c0,38.24-31,69.23-69.23,69.23H133.58
	c-38.24,0-69.23-31-69.23-69.23V302.09z M473.14,681.21c0,44.3-35.92,80.22-80.22,80.22H145.67c-44.3,0-80.22-35.92-80.22-80.22
	V528.46c0-44.3,35.92-80.22,80.22-80.22h247.25c44.3,0,80.22,35.92,80.22,80.22V681.21z M938.31,681.21
	c0,44.3-35.92,80.22-80.22,80.22H610.84c-44.3,0-80.22-35.92-80.22-80.22V528.46c0-44.3,35.92-80.22,80.22-80.22h247.25
	c44.3,0,80.22,35.92,80.22,80.22V681.21z M938.31,342.75c0,38.24-31,69.23-69.23,69.23H758.09c-38.24,0-69.23-31-69.23-69.23v-40.66
	c0-38.24,31-69.23,69.23-69.23h110.99c38.24,0,69.23,31,69.23,69.23V342.75z"/>
</svg>
